<?xml version="1.0" standalone="no"?>
<!DOCTYPE svg PUBLIC "-//W3C//DTD SVG 20010904//EN"
 "http://www.w3.org/TR/2001/REC-SVG-20010904/DTD/svg10.dtd">
<svg version="1.0" xmlns="http://www.w3.org/2000/svg"
 width="312.000000pt" height="316.000000pt" viewBox="0 0 312.000000 316.000000"
 preserveAspectRatio="xMidYMid meet">
<metadata>
Created by potrace 1.16, written by Peter Selinger 2001-2019
</metadata>
<g transform="translate(0.000000,316.000000) scale(0.100000,-0.100000)"
fill="#000000" stroke="none">
<path d="M1275 2490 c-287 -21 -516 -50 -800 -101 -93 -17 -171 -33 -173 -34
-2 -1 21 -76 51 -166 178 -537 483 -1052 929 -1566 113 -130 276 -307 287
-311 5 -2 83 82 173 185 343 392 432 512 624 842 87 149 100 177 86 183 -9 4
-98 26 -197 48 -99 22 -315 71 -480 109 -165 37 -302 67 -304 65 -5 -4 130
-243 142 -251 5 -3 125 -31 265 -63 141 -31 257 -61 259 -66 4 -13 -187 -301
-274 -413 -117 -149 -285 -346 -296 -346 -21 0 -429 537 -567 745 -45 69 -124
211 -175 315 -89 182 -242 542 -234 549 6 5 395 44 614 62 248 20 627 14 920
-15 248 -24 429 -44 432 -46 2 -1 -48 -114 -111 -251 -62 -137 -112 -250 -111
-252 2 -2 48 -14 103 -26 l100 -23 147 345 c80 189 145 346 143 347 -2 2 -69
17 -150 34 -163 34 -432 74 -608 91 -152 15 -643 21 -795 10z"/>
<path d="M1290 2094 c-25 -2 -110 -8 -190 -14 -80 -6 -168 -14 -196 -17 l-52
-5 41 -92 c68 -150 211 -426 270 -521 71 -116 163 -246 295 -418 100 -129 107
-136 123 -120 49 53 268 374 257 378 -7 2 -53 13 -102 25 l-90 21 -33 -38
c-18 -21 -32 -41 -33 -45 -1 -24 -29 7 -128 138 -85 112 -130 184 -198 319
-49 95 -86 176 -83 179 13 13 217 29 369 29 155 -1 407 -17 417 -27 2 -2 -3
-19 -12 -36 -9 -18 -13 -36 -8 -40 10 -9 192 -54 197 -49 9 10 164 294 162
297 -17 17 -870 48 -1006 36z"/>
</g>
</svg>
